<svg xmlns="http://www.w3.org/2000/svg" viewBox="0 0 573.1 500"><path d="M573.1,253.4q-38.9,67.21-77.71,134.48Q463,444,430.58,500H142.37c-.5-.79-1-1.56-1.48-2.36Q70.48,375.69,0,253.76c-1.62-2.8-1.58-4.77,0-7.51Q39.77,177.69,79.33,109q31.5-54.52,63-109H430.58c.36.56.74,1.1,1.07,1.67q70.8,122.66,141.67,245.27C574.79,249.49,574.39,251.17,573.1,253.4Z" style="fill:#f26a21"/><path d="M345.46,254.78q6.74,15.16,6.81,35.67c-.06,10.69-1.48,20.09-4.36,28.38a61.33,61.33,0,0,1-11.73,20.86,50.46,50.46,0,0,1-17.13,12.93,48.64,48.64,0,0,1-60.89-16.19,68.46,68.46,0,0,1-10-21.21,90.74,90.74,0,0,1-3.3-24.36c.07-11.88,1.54-22.13,4.49-30.7s7-15.59,12-21.07a49.28,49.28,0,0,1,17.27-12.22A53.06,53.06,0,0,1,298.76,223a48.93,48.93,0,0,1,27.94,8.36Q338.72,239.72,345.46,254.78Zm60.74,34.83c-.06-16.71-2.24-31.95-6.67-45.64a105.49,105.49,0,0,0-19.1-35.61,85.37,85.37,0,0,0-30.06-23q-17.47-8.12-39.4-8.21a92.51,92.51,0,0,0-24.16,3.09,81.86,81.86,0,0,0-18.19,7.44,70.54,70.54,0,0,0-12.5,8.86,61.81,61.81,0,0,0-7.3,7.44c-1.55,2-2.32,3-2.32,3.08h-.84c0-.06.14-1.82.42-5.12s.35-7.66.42-13v-62.4c.07-9.83-2.25-17.14-6.88-21.77s-11.94-7-21.77-6.89h-51V143.4H183.7c3,0,5.27.7,6.88,2.24s2.39,3.87,2.39,7V397.07h50.58v-11c-.08-4.28-.22-7.73-.43-10.32s-.42-3.93-.42-4h.85a36.76,36.76,0,0,0,2.38,3.16,63.15,63.15,0,0,0,7.3,7.51,77.41,77.41,0,0,0,12.5,9A78.35,78.35,0,0,0,283.8,399a86.61,86.61,0,0,0,23.8,3.15,97.58,97.58,0,0,0,39.4-8,89.88,89.88,0,0,0,31.26-22.69c8.84-9.82,15.65-21.62,20.58-35.47S406.14,306.76,406.2,289.61Z" style="fill:#fff"/></svg>