<svg xmlns="http://www.w3.org/2000/svg" width="338" height="214" viewBox="0 0 338 214" version="1.1"><path d="" stroke="none" fill="#08644c" fill-rule="evenodd"/><path d="M 150.243 10.764 C 128.577 25.078, 120.381 33.325, 112.741 48.500 C 111.356 51.250, 105.007 68.055, 98.632 85.844 C 86.260 120.364, 82.466 128.589, 74.391 138.398 C 66.727 147.708, 66.641 147.966, 69.056 154.421 C 71.928 162.095, 85.830 180.448, 87.521 178.796 C 87.918 178.408, 85.882 173.097, 82.997 166.993 C 76.255 152.730, 76.361 151.413, 85.435 136.518 C 93.997 122.465, 98.450 113.007, 104.986 95 C 107.881 87.025, 110.479 80.275, 110.760 80 C 111.041 79.725, 110.969 81.862, 110.601 84.750 C 110.217 87.762, 110.323 90, 110.851 90 C 111.356 90, 114.359 82.563, 117.524 73.473 C 120.689 64.383, 123.442 57.108, 123.640 57.307 C 123.839 57.506, 123.606 59.787, 123.122 62.377 C 122.638 64.967, 122.608 66.954, 123.056 66.793 C 124.662 66.215, 153.031 40.698, 152.575 40.241 C 152.318 39.985, 149.947 40.511, 147.304 41.411 L 142.500 43.047 150.978 34.524 C 155.641 29.836, 159.115 26, 158.699 26 C 158.283 26, 155.143 27.364, 151.721 29.031 L 145.500 32.062 150.500 27.447 C 157.313 21.160, 166.448 15, 168.959 15 C 170.098 15, 175.185 18.211, 180.264 22.137 C 191.855 31.093, 192.476 31.709, 187.290 29.110 C 184.974 27.950, 182.548 27, 181.898 27 C 181.249 27, 186.071 32.512, 192.614 39.250 C 199.158 45.987, 206.733 54.538, 209.449 58.250 C 212.164 61.963, 214.749 65, 215.193 65 C 215.637 65, 216.029 63.538, 216.063 61.750 C 216.138 57.918, 215.771 57.082, 222.455 76.290 C 225.094 83.874, 227.516 89.818, 227.836 89.497 C 228.156 89.177, 228.290 87.134, 228.133 84.957 C 227.976 82.781, 228.052 81, 228.302 81 C 228.553 81, 231.117 87.412, 233.999 95.250 C 240.551 113.064, 248.126 128.907, 255.531 140.283 C 260.854 148.461, 261.217 149.394, 260.792 153.813 C 260.525 156.595, 258.430 162.583, 255.731 168.280 C 253.199 173.626, 251.524 178, 252.008 178 C 253.053 178, 260.657 170.027, 263.273 166.188 C 264.281 164.710, 266.703 160.383, 268.654 156.574 C 272.117 149.815, 272.163 149.574, 270.569 146.574 C 269.671 144.883, 266.450 140.350, 263.413 136.500 C 255.469 126.432, 250.464 115.431, 238.163 81 C 232.169 64.225, 226.047 47.951, 224.557 44.836 C 221.382 38.200, 213.123 28.747, 205.148 22.623 C 192.445 12.868, 172.033 0, 169.281 0.011 C 167.433 0.019, 161.043 3.627, 150.243 10.764 M 78.250 40.602 C 77.563 40.912, 77 41.804, 77 42.583 C 77 43.742, 79.717 44, 91.941 44 C 101.444 44, 107.122 43.612, 107.541 42.933 C 107.904 42.347, 108.043 41.716, 107.850 41.532 C 107.194 40.904, 79.505 40.034, 78.250 40.602 M 230.247 42.250 C 230.689 43.582, 246.973 44.608, 249.893 43.488 C 253.311 42.176, 248.340 41.030, 239.167 41.015 C 232.141 41.004, 229.936 41.309, 230.247 42.250 M 253.694 41.639 C 252.370 42.964, 254.250 44, 257.977 44 C 262.352 44, 265 43.206, 265 41.893 C 265 40.884, 254.681 40.652, 253.694 41.639 M 157.756 50.991 C 151.983 55.385, 146.688 59.671, 145.988 60.515 C 143.039 64.068, 146.369 62.631, 156.387 56.028 C 162.252 52.163, 167.955 49, 169.059 49 C 170.163 49, 175.664 52.069, 181.283 55.820 C 194.123 64.390, 194 64.320, 194 63.108 C 194 61.640, 170.736 43, 168.903 43 C 168.545 43, 163.528 46.596, 157.756 50.991 M 73.314 56.750 C 72.972 57.712, 72.532 58.801, 72.337 59.169 C 72.141 59.538, 72.649 60.506, 73.464 61.321 C 74.475 62.332, 78.294 63.032, 85.467 63.521 C 97.377 64.333, 99.941 63.476, 101.832 58.053 L 102.896 55 88.417 55 C 75.531 55, 73.869 55.193, 73.314 56.750 M 235.004 55.750 C 235.006 56.163, 235.899 57.962, 236.989 59.750 L 238.971 63 251.950 63 C 263.759 63, 265.023 62.826, 265.965 61.066 C 267.304 58.564, 267.288 58.431, 265.429 56.571 C 264.145 55.288, 261.212 55, 249.429 55 C 241.493 55, 235.002 55.337, 235.004 55.750 M 152.507 70.061 C 132.283 85.039, 127.640 89.154, 121.326 97.692 C 114.200 107.327, 106.282 123.798, 109.829 121.606 C 110.285 121.324, 113.547 116.272, 117.079 110.379 C 120.897 104.009, 126.135 96.990, 130 93.068 C 136.634 86.334, 154.273 71.810, 163.708 65.312 L 168.951 61.702 172.725 64.212 C 181.033 69.738, 206.789 90.934, 211.258 95.923 C 213.875 98.845, 218.600 105.441, 221.758 110.581 C 224.916 115.722, 227.838 119.944, 228.250 119.964 C 229.698 120.034, 228.975 116.884, 226.357 111.717 C 220.761 100.671, 215.932 94.273, 208.282 87.767 C 194.897 76.384, 171.381 59, 169.368 59 C 168.309 59, 160.722 63.978, 152.507 70.061 M 141.667 64.667 C 141.300 65.033, 141 65.798, 141 66.367 C 141 66.993, 141.466 66.934, 142.183 66.217 C 142.834 65.566, 143.134 64.801, 142.850 64.517 C 142.566 64.233, 142.033 64.300, 141.667 64.667 M 61.251 73.723 C 59.363 73.958, 57.569 74.937, 56.966 76.063 C 56.020 77.832, 54.760 78, 42.465 78 C 34.155 78, 29 78.383, 29 79 C 29 79.639, 37.645 80, 52.935 80 C 77.714 80, 84.316 80.815, 80.750 83.435 C 77.903 85.526, 78.672 86, 84.908 86 L 90.816 86 92.817 80.076 C 93.917 76.817, 94.559 73.892, 94.242 73.576 C 93.615 72.948, 66.518 73.070, 61.251 73.723 M 244 73.911 C 244 74.412, 244.962 77.337, 246.139 80.411 L 248.278 86 255.639 86 C 263.441 86, 264.555 85.542, 260.500 84 C 254.289 81.639, 258.673 81.027, 283.667 80.767 C 303.119 80.565, 309.435 80.197, 309.750 79.250 C 310.062 78.313, 307.952 77.998, 301.333 77.991 C 296.475 77.987, 290.127 77.698, 287.228 77.349 C 282.677 76.803, 282.036 76.462, 282.545 74.858 C 283.106 73.091, 282.181 73, 263.567 73 C 252.463 73, 244 73.394, 244 73.911 M 54.313 94.055 C 38.720 94.824, 37 95.161, 37 97.442 C 37 99.631, 40.521 99.972, 63.227 99.986 L 84.954 100 86.563 97.544 C 87.448 96.193, 87.882 94.618, 87.527 94.044 C 86.814 92.889, 77.885 92.892, 54.313 94.055 M 253 95.750 C 253 99.846, 254.732 100.122, 278.369 99.804 C 301.569 99.491, 306.042 98.716, 300.857 95.909 C 299.220 95.022, 291.552 94.496, 275.750 94.189 C 253.500 93.755, 253 93.789, 253 95.750 M 129.531 108.060 C 132.178 113.180, 137.926 118.820, 141.796 120.098 C 145.878 121.445, 153.957 121.443, 155.306 120.094 C 156.475 118.925, 149.084 113.936, 138.862 108.993 C 128.629 104.044, 127.390 103.920, 129.531 108.060 M 195.500 111.544 C 188.900 115.077, 183.050 118.166, 182.500 118.408 C 180.296 119.377, 184.809 120.970, 189.800 120.985 C 197.425 121.007, 204.345 117.046, 207.595 110.800 C 209.119 107.872, 209.450 104.964, 208.250 105.061 C 207.838 105.094, 202.100 108.012, 195.500 111.544 M 259.327 106.828 C 257.285 107.459, 257.237 107.697, 258.528 110.750 L 259.903 114 270.202 114.154 C 301.356 114.622, 336.256 113.275, 335.713 111.627 C 335.256 110.240, 325.486 109.464, 291.500 108.112 C 277.200 107.544, 264.600 106.871, 263.500 106.617 C 262.400 106.363, 260.522 106.458, 259.327 106.828 M 23.500 109.046 C 20.750 109.474, 15.350 109.871, 11.500 109.928 C 5.241 110.020, 0.743 111.155, 2.029 112.317 C 3.311 113.475, 46.650 114.944, 62.222 114.356 C 79.522 113.704, 79.838 113.652, 80.910 111.299 C 81.509 109.983, 82 108.702, 82 108.453 C 82 107.682, 28.797 108.221, 23.500 109.046 M 37 120.006 C 24.049 121.260, 18.979 122.157, 19.558 123.094 C 19.866 123.592, 24.790 124, 30.500 124 C 41.064 124, 44.045 125.031, 40.653 127.512 C 39.744 128.177, 39 129.008, 39 129.360 C 39 129.712, 46.130 130, 54.845 130 C 68.684 130, 70.884 129.778, 72.224 128.250 C 73.755 126.505, 77 120.592, 77 119.550 C 77 118.777, 46.051 119.130, 37 120.006 M 112.769 123.503 C 111.521 125.980, 107.250 132.729, 103.279 138.501 C 92.122 154.714, 90.860 162.260, 97.431 173.472 C 100.263 178.304, 107.602 184.257, 123.057 194.255 C 131.859 199.950, 150.024 206.984, 149.974 204.679 C 149.960 204.031, 144.026 199.450, 136.786 194.500 C 115.983 180.276, 109.452 175.158, 106.039 170.405 C 104.288 167.966, 102.466 166.212, 101.991 166.505 C 101.516 166.799, 102.218 169.505, 103.551 172.520 C 106.275 178.679, 105.651 179.677, 102.223 174.641 C 95.633 164.962, 96.727 157.341, 107.557 137.500 C 115.221 123.457, 117.248 119, 115.968 119 C 115.457 119, 114.017 121.026, 112.769 123.503 M 222.541 121.250 C 222.912 122.487, 226.080 128.703, 229.580 135.061 C 237.166 148.842, 238.774 152.536, 239.999 158.997 C 241.098 164.792, 239.202 172.603, 235.989 175.510 C 233.973 177.334, 233.974 177.314, 236.044 172.634 C 237.190 170.042, 237.987 166.926, 237.814 165.710 C 237.551 163.856, 236.818 164.466, 233.264 169.500 C 230.619 173.247, 226.301 177.468, 221.764 180.741 C 217.769 183.624, 209.550 189.545, 203.500 193.899 C 190.636 203.157, 178.634 212.968, 179.326 213.660 C 179.593 213.926, 181.581 213.027, 183.744 211.661 C 185.908 210.296, 192.699 206.660, 198.837 203.582 C 213.448 196.254, 234.859 182.103, 239.762 176.534 C 246.178 169.245, 247.766 159.551, 243.946 151 C 241.483 145.488, 223.918 119, 222.725 119 C 222.252 119, 222.169 120.013, 222.541 121.250 M 265.750 119.650 C 264.238 119.915, 263.002 120.440, 263.004 120.816 C 263.010 121.936, 267.161 128.441, 268.376 129.235 C 268.994 129.639, 276.925 129.958, 286 129.945 C 301.354 129.922, 302.305 129.814, 299.688 128.396 C 294.593 125.634, 296.949 124.531, 309.080 124 C 321.201 123.469, 321.180 122.720, 309 121.114 C 300.324 119.970, 269.809 118.937, 265.750 119.650 M 43 135.487 C 39.975 136.213, 34.800 136.857, 31.500 136.917 C 24.912 137.038, 21 137.814, 21 139.001 C 21 139.423, 29.946 140.095, 40.881 140.496 C 61.931 141.266, 66.055 140.669, 66.811 136.742 C 67.088 135.304, 66.393 134.998, 62.823 134.991 C 60.445 134.987, 56.250 134.799, 53.500 134.575 C 50.750 134.351, 46.025 134.761, 43 135.487 M 272.015 135.652 C 272.072 138.785, 274.195 139.513, 284.711 140.006 C 310.779 141.228, 330.223 138.510, 307.921 136.761 C 290.103 135.365, 272 134.805, 272.015 135.652 M 327.750 137.786 C 324.738 138.166, 324.097 139.716, 326.561 140.662 C 328.665 141.469, 338.262 139.755, 338.665 138.500 C 338.985 137.506, 333.052 137.118, 327.750 137.786 M 1 138.928 C 1 140.046, 11.339 141.468, 13.484 140.645 C 17.150 139.238, 14.584 138, 8 138 C 4.150 138, 1 138.418, 1 138.928 M 22.095 149.872 C 18.841 150.783, 17.251 153.393, 18.808 155.269 C 19.609 156.234, 23.180 156.928, 29.701 157.387 C 35.036 157.762, 39.601 158.267, 39.843 158.510 C 40.086 158.753, 39.661 159.704, 38.898 160.623 C 37.617 162.166, 38.096 162.257, 45.148 161.804 C 51.208 161.415, 53.881 160.695, 58.089 158.318 C 61.006 156.670, 63.558 154.827, 63.759 154.223 C 63.960 153.619, 63.197 152.197, 62.063 151.063 C 60.126 149.126, 58.917 149.006, 42.250 149.100 C 32.487 149.155, 23.418 149.502, 22.095 149.872 M 276.447 152.059 C 274.051 154.706, 275.109 156.459, 281.008 159.614 C 284.677 161.576, 286.936 162, 293.735 162 C 301.140 162, 302 161.806, 302 160.131 C 302 157.975, 305.997 157.029, 315.179 157.011 C 320.456 157.001, 324 155.441, 324 153.129 C 324 150.408, 320.868 150, 299.955 150 C 279.375 150, 278.218 150.101, 276.447 152.059 M 54.500 167.628 C 47.900 170.714, 41.868 173.833, 41.096 174.560 C 39.321 176.229, 40.070 177.433, 52.729 193.250 C 65.607 209.342, 67.161 209.133, 59.111 192.393 L 54.250 182.286 59.875 180.515 C 62.969 179.540, 66.068 178.526, 66.761 178.260 C 67.575 177.949, 67.808 178.336, 67.419 179.351 C 66.723 181.164, 69.638 184.164, 78.500 190.751 C 90.310 199.529, 96.728 200.949, 88.425 192.946 C 83.968 188.650, 77.357 178.750, 72.603 169.250 C 70.608 165.262, 68.418 162.004, 67.737 162.008 C 67.057 162.013, 61.100 164.542, 54.500 167.628 M 270.587 163.211 C 269.602 163.763, 267.704 166.682, 266.370 169.699 C 263.085 177.125, 257.794 185.319, 251.774 192.302 C 249.023 195.494, 247.024 198.358, 247.333 198.666 C 248.365 199.698, 262.206 190.377, 268.750 184.244 C 270.538 182.568, 272 180.478, 272 179.599 C 272 177.567, 272.071 177.575, 277.424 180.175 C 282.231 182.511, 282.524 183.981, 278.191 184.032 L 275.500 184.063 278.414 186.625 L 281.328 189.187 276.468 199.064 C 271.955 208.237, 271.247 211.201, 273.973 209.517 C 276.724 207.817, 299.115 176.742, 298.585 175.360 C 298.269 174.538, 292.946 171.487, 286.756 168.578 C 272.722 161.985, 272.758 161.997, 270.587 163.211 M 19 182.646 C 15.975 183.451, 11.831 184.548, 9.792 185.082 C 5.450 186.221, 5.467 186.348, 11.298 196.294 C 14.999 202.608, 15.185 203.280, 13.922 205.794 C 13.175 207.282, 12.400 208.838, 12.199 209.250 C 11.998 209.662, 16.821 210, 22.917 210 C 29.012 210, 34 209.704, 34 209.342 C 34 208.981, 32.256 206.393, 30.125 203.592 C 27.994 200.792, 25.728 197.488, 25.090 196.250 C 24.041 194.216, 24.163 194, 26.353 194 C 27.686 194, 32.711 195.140, 37.521 196.534 C 42.330 197.928, 46.394 198.939, 46.552 198.781 C 46.710 198.623, 43.648 194.558, 39.748 189.747 C 32.873 181.268, 32.531 181.003, 28.578 181.091 C 26.335 181.141, 22.025 181.841, 19 182.646 M 303.854 183.750 C 299.696 188.286, 291.658 198.993, 292.094 199.415 C 292.317 199.631, 296.325 198.511, 301 196.925 C 309.105 194.177, 315 193.226, 315 194.668 C 315 195.036, 312.750 198.421, 310 202.190 C 307.250 205.959, 305 209.258, 305 209.521 C 305 209.785, 309.950 210, 316 210 C 322.050 210, 326.986 209.662, 326.968 209.250 C 326.951 208.838, 326.276 207.626, 325.468 206.559 C 323.361 203.773, 323.546 202.963, 328.099 195.066 C 330.353 191.156, 331.982 187.394, 331.718 186.707 C 331.227 185.428, 313.541 181, 308.927 181 C 307.420 181, 305.342 182.126, 303.854 183.750" stroke="none" fill="#04644c" fill-rule="evenodd"/></svg>