<?xml version="1.0" encoding="utf-8"?>
<svg version="1.1" class="header-logo-svg" width="1175" height="896" xmlns="http://www.w3.org/2000/svg"
     xmlns:xlink="http://www.w3.org/1999/xlink" x="0px" y="0px" viewBox="0 0 1175 896" xml:space="preserve">

    	<g>
			<path fill="#016BFF" d="M494.7,171.8h182.9c4.9,0,7.8-5.6,5.6-9.9L591.4,3.7c-2.1-4.2-8.5-4.2-11.3,0l-91.8,158.2 C486.7,165.6,489.7,171.8,494.7,171.8z"/>
			<path fill="#016BFF" d="M542.8,616.7c91.8-252.8-178-401.1-178-401.1L8.9,0.9C4-2-1.6,3,0.5,7.9L45,133.6c1.4,4.9,4.9,8.5,9.2,11.3 l227.4,134.9c0,0,139.1,78.4,163.8,173.7L97.2,245.2c-5.6-3.5-12,2.1-9.9,7.8l44.5,122.9c2.1,5.6,6.4,11.3,12,14.1L531,621.6 C534.9,624,540.7,621.6,542.8,616.7z"/>
			<path fill="#016BFF" d="M629,616.7c-91.8-252.8,178-401.1,178-401.1L1162.9,0.9c4.9-2.8,10.6,2.1,8.5,7.1l-44.5,125.7 c-1.4,4.9-4.9,8.5-9.2,11.3L890.3,279.8c0,0-139.1,78.4-163.8,173.7l348.2-208.3c5.6-3.5,12,2.1,9.9,7.8L1040,375.9 c-2.1,5.6-6.4,11.3-12,14.1L640.8,621.6C636.9,624,631.1,621.6,629,616.7z"/>
			<path fill="#016BFF" d="M1002.6,482.5L585.9,731.8L169.3,482.5c-1.3-0.7-2.4,0.6-2.1,1.4c8.5,23.3,60.7,157.5,201.3,234.5l118.6,72 l-74.2,44.5c-3.5,2.1-3.5,7.8,0,9.9l80.5,48.7c5.6,3.5,13.4,3.5,19.1,0l73.4-44.2l73.4,44.2c5.6,3.5,13.4,3.5,19.1,0l80.5-48.7 c3.5-2.1,3.5-7.8,0-9.9l-74.2-44.5l118.6-72c140.5-77,192.8-211.2,201.3-234.5C1005,483.1,1003.9,481.7,1002.6,482.5z"/>
		</g>
</svg>
